<mxfile host="app.diagrams.net" modified="2020-11-16T17:29:15.551Z" agent="5.0 (Windows NT 10.0; Win64; x64) AppleWebKit/537.36 (KHTML, like Gecko) Chrome/86.0.4240.193 Safari/537.36" etag="h9DSaIipS7GHwSQjxv--" version="13.9.2" type="github">
  <diagram id="RJK-jKufAWOWUmZ6hXpm" name="Page-1">
    <mxGraphModel dx="1483" dy="783" grid="1" gridSize="10" guides="1" tooltips="1" connect="1" arrows="1" fold="1" page="1" pageScale="1" pageWidth="1169" pageHeight="827" math="0" shadow="0">
      <root>
        <mxCell id="0" />
        <mxCell id="1" parent="0" />
        <mxCell id="vI-H8E_BASd690M0DVD9-1" value="" style="rounded=0;whiteSpace=wrap;html=1;" vertex="1" parent="1">
          <mxGeometry width="1169" height="60" as="geometry" />
        </mxCell>
        <mxCell id="vI-H8E_BASd690M0DVD9-3" value="&lt;font size=&quot;1&quot;&gt;&lt;b style=&quot;font-size: 20px&quot;&gt;Shannon&#39;s Bookworm Corner&lt;/b&gt;&lt;/font&gt;" style="text;html=1;strokeColor=none;fillColor=none;align=center;verticalAlign=middle;whiteSpace=wrap;rounded=0;" vertex="1" parent="1">
          <mxGeometry y="20" width="300" height="30" as="geometry" />
        </mxCell>
        <mxCell id="vI-H8E_BASd690M0DVD9-8" value="&lt;font style=&quot;font-size: 16px&quot;&gt;Home&lt;/font&gt;" style="text;html=1;strokeColor=none;fillColor=none;align=center;verticalAlign=middle;whiteSpace=wrap;rounded=0;" vertex="1" parent="1">
          <mxGeometry x="760" y="25" width="40" height="20" as="geometry" />
        </mxCell>
        <mxCell id="vI-H8E_BASd690M0DVD9-9" value="&lt;font style=&quot;font-size: 16px&quot;&gt;Books&amp;nbsp;&lt;/font&gt;" style="text;html=1;strokeColor=none;fillColor=none;align=center;verticalAlign=middle;whiteSpace=wrap;rounded=0;" vertex="1" parent="1">
          <mxGeometry x="830" y="25" width="40" height="20" as="geometry" />
        </mxCell>
        <mxCell id="vI-H8E_BASd690M0DVD9-10" value="&lt;font style=&quot;font-size: 16px&quot;&gt;Wishlist&lt;/font&gt;" style="text;html=1;strokeColor=none;fillColor=none;align=center;verticalAlign=middle;whiteSpace=wrap;rounded=0;" vertex="1" parent="1">
          <mxGeometry x="920" y="25" width="40" height="20" as="geometry" />
        </mxCell>
        <mxCell id="vI-H8E_BASd690M0DVD9-11" value="&lt;font style=&quot;font-size: 16px&quot;&gt;Sign/Register&amp;nbsp;&lt;/font&gt;" style="text;html=1;strokeColor=none;fillColor=none;align=center;verticalAlign=middle;whiteSpace=wrap;rounded=0;" vertex="1" parent="1">
          <mxGeometry x="1030" y="25" width="70" height="20" as="geometry" />
        </mxCell>
        <mxCell id="vI-H8E_BASd690M0DVD9-24" value="" style="endArrow=none;html=1;" edge="1" parent="1">
          <mxGeometry width="50" height="50" relative="1" as="geometry">
            <mxPoint x="880" y="40" as="sourcePoint" />
            <mxPoint x="890" y="30" as="targetPoint" />
          </mxGeometry>
        </mxCell>
        <mxCell id="vI-H8E_BASd690M0DVD9-25" value="" style="endArrow=none;html=1;" edge="1" parent="1">
          <mxGeometry width="50" height="50" relative="1" as="geometry">
            <mxPoint x="870" y="30" as="sourcePoint" />
            <mxPoint x="880" y="40" as="targetPoint" />
          </mxGeometry>
        </mxCell>
        <mxCell id="vI-H8E_BASd690M0DVD9-26" value="" style="verticalLabelPosition=bottom;verticalAlign=top;html=1;shape=mxgraph.basic.heart;fillColor=#FF6666;" vertex="1" parent="1">
          <mxGeometry x="970" y="27.5" width="20" height="15" as="geometry" />
        </mxCell>
        <mxCell id="vI-H8E_BASd690M0DVD9-30" value="" style="verticalLabelPosition=bottom;verticalAlign=top;html=1;shape=mxgraph.basic.diag_round_rect;dx=6;" vertex="1" parent="1">
          <mxGeometry x="340" y="17.5" width="360" height="30" as="geometry" />
        </mxCell>
        <mxCell id="vI-H8E_BASd690M0DVD9-31" value="" style="ellipse;whiteSpace=wrap;html=1;aspect=fixed;" vertex="1" parent="1">
          <mxGeometry x="710" y="20" width="10" height="10" as="geometry" />
        </mxCell>
        <mxCell id="vI-H8E_BASd690M0DVD9-33" value="" style="endArrow=none;html=1;" edge="1" parent="1">
          <mxGeometry width="50" height="50" relative="1" as="geometry">
            <mxPoint x="720" y="29" as="sourcePoint" />
            <mxPoint x="720" y="29" as="targetPoint" />
            <Array as="points">
              <mxPoint x="730" y="41" />
            </Array>
          </mxGeometry>
        </mxCell>
        <mxCell id="vI-H8E_BASd690M0DVD9-43" value="&lt;font style=&quot;font-size: 15px&quot;&gt;&lt;i&gt;Find books...&lt;/i&gt;&lt;/font&gt;" style="text;html=1;strokeColor=none;fillColor=none;align=center;verticalAlign=middle;whiteSpace=wrap;rounded=0;" vertex="1" parent="1">
          <mxGeometry x="340" y="25" width="110" height="20" as="geometry" />
        </mxCell>
        <mxCell id="vI-H8E_BASd690M0DVD9-45" style="edgeStyle=orthogonalEdgeStyle;rounded=0;orthogonalLoop=1;jettySize=auto;html=1;exitX=0.5;exitY=1;exitDx=0;exitDy=0;" edge="1" parent="1" source="vI-H8E_BASd690M0DVD9-43" target="vI-H8E_BASd690M0DVD9-43">
          <mxGeometry relative="1" as="geometry" />
        </mxCell>
        <mxCell id="vI-H8E_BASd690M0DVD9-47" value="" style="verticalLabelPosition=bottom;shadow=0;dashed=0;align=center;html=1;verticalAlign=top;strokeWidth=1;shape=mxgraph.mockup.misc.shoppingCart;strokeColor=#314354;fillColor=#647687;fontColor=#ffffff;" vertex="1" parent="1">
          <mxGeometry x="1130" y="20" width="20" height="25" as="geometry" />
        </mxCell>
      </root>
    </mxGraphModel>
  </diagram>
</mxfile>
